HIERARCHY
ROOT Hips
{
	OFFSET 0.000000 71.427986 0.000000
	CHANNELS 6 Xposition Yposition Zposition Xrotation Yrotation Zrotation
	JOINT Pelvis
	{
		OFFSET 0.000000 0.000000 0.000000
		CHANNELS 3 Xrotation Yrotation Zrotation
		JOINT LeftUpLeg
		{
			OFFSET 6.797100 -2.508499 -1.318700
			CHANNELS 3 Xrotation Yrotation Zrotation
			JOINT LeftLeg
			{
				OFFSET 0.069008 -29.241863 0.690200
				CHANNELS 3 Xrotation Yrotation Zrotation
				JOINT LeftFoot
				{
					OFFSET -0.069008 -29.568123 -0.266800
					CHANNELS 3 Xrotation Yrotation Zrotation
					JOINT LeftToeBase
					{
						OFFSET 3.145500 -8.631000 16.059900
						CHANNELS 3 Xrotation Yrotation Zrotation
						End Site
						{
							OFFSET 0.000000 18.501587 0.000000
						}
					}
				}
			}
			JOINT Left_ShortSleeve
			{
				OFFSET 0.265923 -10.480953 1.153800
				CHANNELS 3 Xrotation Yrotation Zrotation
				End Site
				{
					OFFSET 1.725763 19.823879 0.000000
				}
			}
		}
		JOINT RightUpLeg
		{
			OFFSET -6.797100 -2.508499 -1.318700
			CHANNELS 3 Xrotation Yrotation Zrotation
			JOINT RightLeg
			{
				OFFSET -0.082453 -29.241932 0.688000
				CHANNELS 3 Xrotation Yrotation Zrotation
				JOINT RightFoot
				{
					OFFSET 0.082453 -29.568058 -0.264600
					CHANNELS 3 Xrotation Yrotation Zrotation
					JOINT RightToeBase
					{
						OFFSET -3.115300 -8.682800 16.113400
						CHANNELS 3 Xrotation Yrotation Zrotation
						End Site
						{
							OFFSET 0.000000 18.567114 0.000000
						}
					}
				}
			}
			JOINT Right_ShortSleeve
			{
				OFFSET -0.265923 -10.480953 1.153800
				CHANNELS 3 Xrotation Yrotation Zrotation
				End Site
				{
					OFFSET -1.725766 19.823910 0.000000
				}
			}
		}
	}
	JOINT Spine
	{
		OFFSET 0.000000 13.368103 0.470500
		CHANNELS 3 Xrotation Yrotation Zrotation
		JOINT Spine1
		{
			OFFSET 0.147000 13.837402 0.538800
			CHANNELS 3 Xrotation Yrotation Zrotation
			JOINT Spine2
			{
				OFFSET 0.168000 16.242897 -1.435500
				CHANNELS 3 Xrotation Yrotation Zrotation
				JOINT Neck
				{
					OFFSET 0.217200 18.631500 -1.679100
					CHANNELS 3 Xrotation Yrotation Zrotation
					JOINT Head
					{
						OFFSET 0.000000 6.599396 1.385900
						CHANNELS 3 Xrotation Yrotation Zrotation
						JOINT Hat
						{
							OFFSET -0.532200 27.220596 -10.096100
							CHANNELS 3 Xrotation Yrotation Zrotation
							End Site
							{
								OFFSET 0.000000 22.029861 0.000000
							}
						}
						JOINT HairD
						{
							OFFSET -10.777400 17.437393 -1.325900
							CHANNELS 3 Xrotation Yrotation Zrotation
							JOINT HairD1
							{
								OFFSET -3.290299 -11.051193 1.062200
								CHANNELS 3 Xrotation Yrotation Zrotation
								End Site
								{
									OFFSET 0.000000 11.579437 0.000000
								}
							}
						}
						JOINT HairB
						{
							OFFSET -10.777400 17.437393 1.467900
							CHANNELS 3 Xrotation Yrotation Zrotation
							JOINT HairB1
							{
								OFFSET -1.561200 -12.956299 3.590200
								CHANNELS 3 Xrotation Yrotation Zrotation
								End Site
								{
									OFFSET 0.000000 13.534866 0.000000
								}
							}
						}
						JOINT HairA
						{
							OFFSET 9.713100 17.437393 1.467900
							CHANNELS 3 Xrotation Yrotation Zrotation
							JOINT HairA1
							{
								OFFSET 1.561200 -12.956299 3.590200
								CHANNELS 3 Xrotation Yrotation Zrotation
								End Site
								{
									OFFSET 0.000000 13.534866 0.000000
								}
							}
						}
						JOINT HairC
						{
							OFFSET 9.713100 17.437393 -1.325900
							CHANNELS 3 Xrotation Yrotation Zrotation
							JOINT HairC1
							{
								OFFSET 3.290300 -11.051193 1.062200
								CHANNELS 3 Xrotation Yrotation Zrotation
								End Site
								{
									OFFSET 0.000000 11.579437 0.000000
								}
							}
						}
					}
				}
				JOINT LeftShoulder
				{
					OFFSET 5.101800 15.108002 -2.763700
					CHANNELS 3 Xrotation Yrotation Zrotation
					JOINT LeftArm
					{
						OFFSET 9.825497 2.506317 -1.597400
						CHANNELS 3 Xrotation Yrotation Zrotation
						JOINT LeftForeArm
						{
							OFFSET 21.966244 0.000000 0.000000
							CHANNELS 3 Xrotation Yrotation Zrotation
							JOINT LeftHand
							{
								OFFSET 33.879036 0.000000 0.000000
								CHANNELS 3 Xrotation Yrotation Zrotation
								JOINT LeftHandThumb1
								{
									OFFSET 6.715286 -2.359680 3.363841
									CHANNELS 3 Xrotation Yrotation Zrotation
									JOINT LeftHandThumb2
									{
										OFFSET 2.507072 -1.447464 1.447461
										CHANNELS 3 Xrotation Yrotation Zrotation
										JOINT LeftHandThumb3
										{
											OFFSET 2.898338 -1.673355 1.673357
											CHANNELS 3 Xrotation Yrotation Zrotation
											End Site
											{
												OFFSET -0.295959 3.727692 -0.131651
											}
										}
									}
								}
								JOINT LeftHandIndex1
								{
									OFFSET 14.190811 -0.254547 3.840278
									CHANNELS 3 Xrotation Yrotation Zrotation
									JOINT LeftHandIndex2
									{
										OFFSET 3.551727 0.000000 -0.000000
										CHANNELS 3 Xrotation Yrotation Zrotation
										JOINT LeftHandIndex3
										{
											OFFSET 2.894196 0.000000 0.000000
											CHANNELS 3 Xrotation Yrotation Zrotation
											End Site
											{
												OFFSET -1.000603 2.690872 0.366626
											}
										}
									}
								}
								JOINT LeftHandMiddle1
								{
									OFFSET 13.776489 0.000000 0.000000
									CHANNELS 3 Xrotation Yrotation Zrotation
									JOINT LeftHandMiddle2
									{
										OFFSET 3.438232 0.000000 0.000000
										CHANNELS 3 Xrotation Yrotation Zrotation
										JOINT LeftHandMiddle3
										{
											OFFSET 3.691551 0.000000 0.000000
											CHANNELS 3 Xrotation Yrotation Zrotation
											End Site
											{
												OFFSET -1.082298 3.499527 0.457670
											}
										}
									}
								}
								JOINT LeftHandRing1
								{
									OFFSET 13.966164 -0.268127 -3.067488
									CHANNELS 3 Xrotation Yrotation Zrotation
									JOINT LeftHandRing2
									{
										OFFSET 3.162567 0.000000 0.000000
										CHANNELS 3 Xrotation Yrotation Zrotation
										JOINT LeftHandRing3
										{
											OFFSET 3.324348 0.000000 0.000000
											CHANNELS 3 Xrotation Yrotation Zrotation
											End Site
											{
												OFFSET -0.861900 3.184998 0.405154
											}
										}
									}
								}
								JOINT LeftHandPinky1
								{
									OFFSET 13.131393 -0.168503 -5.746925
									CHANNELS 3 Xrotation Yrotation Zrotation
									JOINT LeftHandPinky2
									{
										OFFSET 2.849182 0.000000 0.000000
										CHANNELS 3 Xrotation Yrotation Zrotation
										JOINT LeftHandPinky3
										{
											OFFSET 2.805038 0.000000 0.000000
											CHANNELS 3 Xrotation Yrotation Zrotation
											End Site
											{
												OFFSET -0.882500 2.642609 0.325652
											}
										}
									}
								}
							}
							JOINT Left_Sleeve
							{
								OFFSET 6.592125 -0.646545 0.805568
								CHANNELS 3 Xrotation Yrotation Zrotation
								End Site
								{
									OFFSET -0.000179 20.275787 -0.000000
								}
							}
						}
					}
				}
				JOINT RightShoulder
				{
					OFFSET -5.731700 15.108002 -2.763700
					CHANNELS 3 Xrotation Yrotation Zrotation
					JOINT RightArm
					{
						OFFSET -9.825497 2.506317 -1.597400
						CHANNELS 3 Xrotation Yrotation Zrotation
						JOINT RightForeArm
						{
							OFFSET -21.966242 0.000000 0.000000
							CHANNELS 3 Xrotation Yrotation Zrotation
							JOINT RightHand
							{
								OFFSET -33.879032 0.000000 0.000000
								CHANNELS 3 Xrotation Yrotation Zrotation
								JOINT RightHandThumb1
								{
									OFFSET -6.715286 -2.359680 3.363841
									CHANNELS 3 Xrotation Yrotation Zrotation
									JOINT RightHandThumb2
									{
										OFFSET -2.507072 -1.447464 1.447461
										CHANNELS 3 Xrotation Yrotation Zrotation
										JOINT RightHandThumb3
										{
											OFFSET -2.898338 -1.673355 1.673357
											CHANNELS 3 Xrotation Yrotation Zrotation
											End Site
											{
												OFFSET 0.295959 3.727692 -0.131651
											}
										}
									}
								}
								JOINT RightHandIndex1
								{
									OFFSET -14.190811 -0.254547 3.840278
									CHANNELS 3 Xrotation Yrotation Zrotation
									JOINT RightHandIndex2
									{
										OFFSET -3.551727 0.000000 -0.000000
										CHANNELS 3 Xrotation Yrotation Zrotation
										JOINT RightHandIndex3
										{
											OFFSET -2.894196 0.000000 0.000000
											CHANNELS 3 Xrotation Yrotation Zrotation
											End Site
											{
												OFFSET 1.000603 2.690872 0.366626
											}
										}
									}
								}
								JOINT RightHandMiddle1
								{
									OFFSET -13.776489 0.000000 0.000000
									CHANNELS 3 Xrotation Yrotation Zrotation
									JOINT RightHandMiddle2
									{
										OFFSET -3.438232 0.000000 0.000000
										CHANNELS 3 Xrotation Yrotation Zrotation
										JOINT RightHandMiddle3
										{
											OFFSET -3.691551 0.000000 0.000000
											CHANNELS 3 Xrotation Yrotation Zrotation
											End Site
											{
												OFFSET 1.082298 3.499527 0.457670
											}
										}
									}
								}
								JOINT RightHandRing1
								{
									OFFSET -13.966164 -0.268127 -3.067488
									CHANNELS 3 Xrotation Yrotation Zrotation
									JOINT RightHandRing2
									{
										OFFSET -3.162567 0.000000 0.000000
										CHANNELS 3 Xrotation Yrotation Zrotation
										JOINT RightHandRing3
										{
											OFFSET -3.324348 0.000000 0.000000
											CHANNELS 3 Xrotation Yrotation Zrotation
											End Site
											{
												OFFSET 0.861900 3.184998 0.405154
											}
										}
									}
								}
								JOINT RightHandPinky1
								{
									OFFSET -13.131393 -0.168503 -5.746925
									CHANNELS 3 Xrotation Yrotation Zrotation
									JOINT RightHandPinky2
									{
										OFFSET -2.849182 0.000000 0.000000
										CHANNELS 3 Xrotation Yrotation Zrotation
										JOINT RightHandPinky3
										{
											OFFSET -2.805038 0.000000 0.000000
											CHANNELS 3 Xrotation Yrotation Zrotation
											End Site
											{
												OFFSET 0.882500 2.642609 0.325652
											}
										}
									}
								}
							}
							JOINT Right_Sleeve
							{
								OFFSET -6.592125 -0.646545 0.805568
								CHANNELS 3 Xrotation Yrotation Zrotation
								End Site
								{
									OFFSET 0.000179 20.275787 -0.000000
								}
							}
						}
					}
				}
				JOINT Bind_Right_JacketString
				{
					OFFSET -3.534800 11.969597 7.200700
					CHANNELS 3 Xrotation Yrotation Zrotation
					JOINT Bind_Right_JacketString1
					{
						OFFSET -0.319900 -6.102600 2.794100
						CHANNELS 3 Xrotation Yrotation Zrotation
						End Site
						{
							OFFSET 0.000000 6.719452 0.000000
						}
					}
				}
				JOINT Bind_Left_JacketString
				{
					OFFSET 2.904800 11.969597 7.200700
					CHANNELS 3 Xrotation Yrotation Zrotation
					JOINT Bind_Left_JacketString1
					{
						OFFSET 0.364800 -5.904503 3.186800
						CHANNELS 3 Xrotation Yrotation Zrotation
						End Site
						{
							OFFSET 0.000000 6.719513 0.000000
						}
					}
				}
				JOINT HairE
				{
					OFFSET 5.915200 17.612701 -11.592200
					CHANNELS 3 Xrotation Yrotation Zrotation
					JOINT HairE1
					{
						OFFSET 0.289200 -7.171898 -1.284500
						CHANNELS 3 Xrotation Yrotation Zrotation
						End Site
						{
							OFFSET 0.000000 7.291756 0.000000
						}
					}
				}
				JOINT HairF
				{
					OFFSET -0.864800 17.612701 -11.592200
					CHANNELS 3 Xrotation Yrotation Zrotation
					JOINT HairF1
					{
						OFFSET 0.000000 -14.087097 -2.127501
						CHANNELS 3 Xrotation Yrotation Zrotation
						End Site
						{
							OFFSET 0.000000 14.246841 0.000000
						}
					}
				}
				JOINT HairG
				{
					OFFSET -8.087700 17.612701 -11.592200
					CHANNELS 3 Xrotation Yrotation Zrotation
					JOINT HairG1
					{
						OFFSET -0.293600 -6.081398 -0.910100
						CHANNELS 3 Xrotation Yrotation Zrotation
						End Site
						{
							OFFSET 0.000000 6.156120 0.000000
						}
					}
				}
			}
		}
	}
	JOINT Pouch
	{
		OFFSET 0.000000 4.394501 10.847300
		CHANNELS 3 Xrotation Yrotation Zrotation
		End Site
		{
			OFFSET 0.000000 21.880577 0.000000
		}
	}
	JOINT Bag
	{
		OFFSET -13.229000 4.813004 -0.593300
		CHANNELS 3 Xrotation Yrotation Zrotation
		End Site
		{
			OFFSET 0.000000 21.880577 0.000000
		}
	}
	JOINT OccupyGuyFacialAnim_Joint
	{
		OFFSET 1.000000 -70.206398 -1.655000
		CHANNELS 3 Xrotation Yrotation Zrotation
		End Site
		{
			OFFSET 0.000000 21.880577 0.000000
		}
	}
}
MOTION
Frames: 4
Frame Time: 0.033333
-0.264403 72.268723 0.409696 -3.422942 3.900877 -3.328954 -0.000000 -0.000000 -0.000000 -25.697146 -10.407012 0.033307 58.912936 0.846187 -0.100962 4.011989 1.870545 9.041138 0.000005 0.000000 -0.000000 -0.000000 0.000001 0.000000 -13.173782 -10.454745 7.417779 38.401219 -0.906317 0.139574 0.154351 0.423024 -7.099501 -0.000001 0.000000 -0.000000 -0.000000 0.000001 -0.000000 7.483739 -0.365798 -0.643289 -2.114712 -0.634069 1.955414 -2.107416 -0.526124 1.991271 -6.842936 -2.682121 0.508895 2.526806 0.700265 0.466969 -0.000000 -0.000000 0.000000 -0.000000 -0.000000 0.000000 -0.000000 -0.000000 0.000000 -0.000000 -0.000000 -0.000000 0.000000 0.000000 0.000000 -0.000000 -0.000000 -0.000000 0.000000 0.000000 0.000000 -0.000000 -0.000000 0.000000 -0.000000 -0.000000 0.000000 1.091374 1.577356 -3.543023 -1.207973 1.492930 -78.012734 20.698671 -13.799221 -0.079274 -0.026789 -3.262842 -0.409682 10.557726 -2.873386 25.085779 -5.464626 26.112179 -7.055895 -0.000000 0.000001 -0.000003 2.372993 3.633847 -10.145446 -2.145816 2.447210 -20.340633 0.000001 0.000000 -0.000000 -1.990250 5.665570 -18.667477 0.263052 5.082132 -32.022584 -0.000001 0.000001 -0.000003 -4.969202 10.104350 -16.317472 4.014935 4.052324 -38.804002 0.000001 0.000001 -0.000004 -6.476571 11.320898 -26.084305 10.723206 2.560265 -37.639619 -0.000001 0.000000 0.000001 0.000001 -0.000001 0.000001 0.479131 5.314191 4.320681 -7.274271 4.805432 74.559212 13.988530 13.383101 -4.467015 0.106866 3.530063 -2.699119 15.564075 -0.729770 -16.761954 -6.578851 -24.369731 7.035374 -0.000003 0.000000 0.000002 2.250996 -2.301182 4.747735 -2.154580 -2.456064 14.947555 -0.000000 0.000000 0.000002 -1.992145 -5.669366 8.743161 0.257173 -5.078375 22.099400 0.000001 0.000000 -0.000001 -4.972940 -10.109056 7.763633 4.016886 -4.039800 30.251625 0.000002 -0.000002 -0.000002 -6.475028 -11.314542 16.981513 10.696050 -2.546491 28.534567 0.000005 0.000001 0.000002 0.000001 0.000001 -0.000002 -0.000000 -0.000000 0.000000 -0.000000 -0.000000 0.000000 -0.000000 -0.000000 0.000000 -0.000000 -0.000000 0.000000 -0.000000 -0.000000 0.000000 -0.000000 -0.000000 0.000000 -0.000000 -0.000000 0.000000 -0.000000 -0.000000 0.000000 -0.000000 -0.000000 0.000000 -0.000000 -0.000000 0.000000 -0.000000 -0.000000 -0.000000 -0.000000 -0.000000 -0.000000 -0.000000 -0.000000 -0.000000 
0.036727 72.677956 1.590364 -3.306523 2.647227 -1.814680 0.000000 -0.000000 0.000000 -27.397617 -9.850323 -1.632344 51.537373 1.915466 0.019416 5.175132 2.429577 9.719287 0.000000 0.000000 0.000001 0.000002 -0.000000 0.000000 -11.678263 -10.488291 5.363343 37.129424 1.037608 0.281215 -0.309985 0.436205 -7.374669 0.000001 0.000000 0.000000 0.000001 -0.000000 0.000000 8.131722 -0.157196 -1.677015 -2.394297 -0.232177 1.722618 -2.400175 -0.165989 1.716272 -6.586451 -2.355026 -0.066430 2.308736 0.710695 0.771566 -0.000000 -0.000000 -0.000000 -0.000000 -0.000000 -0.000000 -0.000000 -0.000000 -0.000000 -0.000000 -0.000000 -0.000000 0.000000 0.000000 -0.000000 -0.000000 -0.000000 -0.000000 0.000000 0.000000 -0.000000 -0.000000 -0.000000 -0.000000 -0.000000 -0.000000 -0.000000 1.115588 1.805512 -3.732249 -0.983735 0.592104 -77.785705 20.071725 -14.611096 0.045995 -0.268134 -3.378128 -1.579055 10.734387 -2.589345 24.783512 -5.348671 26.283101 -7.058181 0.000000 -0.000000 -0.000001 2.371962 3.633060 -10.391516 -2.145691 2.448208 -20.588084 0.000002 -0.000000 -0.000002 -1.988566 5.665802 -18.909488 0.264897 5.083075 -32.265605 0.000001 -0.000001 0.000004 -4.970163 10.109535 -16.558364 4.014856 4.053526 -39.045845 -0.000001 0.000001 -0.000004 -6.469736 11.323488 -26.327224 10.722711 2.564213 -37.884935 0.000000 0.000001 0.000001 0.000001 -0.000001 -0.000001 0.547019 6.221837 3.850041 -9.100942 6.298767 74.715924 13.171393 15.431380 -4.579258 0.177106 4.019798 -3.562684 15.576540 -0.819349 -16.783489 -6.644474 -24.267969 7.035493 -0.000001 -0.000001 0.000003 2.251491 -2.298614 4.619636 -2.154472 -2.453489 14.819584 -0.000003 0.000000 0.000002 -1.991482 -5.672116 8.903686 0.261931 -5.079664 22.260244 -0.000001 0.000001 0.000001 -4.974137 -10.112614 7.935163 4.016246 -4.043936 30.423852 0.000004 -0.000002 0.000001 -6.473699 -11.317370 17.185538 10.698843 -2.550114 28.739404 -0.000000 -0.000002 -0.000001 -0.000001 -0.000001 0.000001 0.000000 0.000000 -0.000000 0.000000 0.000000 -0.000000 0.000000 0.000000 -0.000000 0.000000 0.000000 -0.000000 0.000000 0.000000 -0.000000 0.000000 0.000000 -0.000000 0.000000 0.000000 -0.000000 0.000000 0.000000 -0.000000 0.000000 0.000000 -0.000000 0.000000 0.000000 -0.000000 0.000000 -0.000000 0.000000 0.000000 -0.000000 0.000000 0.000000 -0.000000 0.000000 
0.378117 72.958565 2.807241 -3.201656 0.882692 -0.565461 0.000000 -0.000000 0.000000 -27.030651 -7.647163 -2.067502 40.601779 -1.212305 -0.172755 9.722013 3.032412 9.131744 0.000001 -0.000000 -0.000000 -0.000000 0.000000 -0.000000 -10.361311 -11.243425 3.157085 36.293761 4.062198 0.569835 -0.897208 0.453972 -8.063245 -0.000001 -0.000000 -0.000000 0.000001 0.000001 -0.000002 8.689261 0.213685 -1.943313 -2.542744 0.268829 1.225863 -2.558869 0.278885 1.163872 -6.294651 -1.933231 -0.740996 1.764083 0.752143 1.075398 -0.000000 0.000000 0.000000 -0.000000 0.000000 0.000000 -0.000000 0.000000 0.000000 -0.000000 0.000000 -0.000000 0.000000 -0.000000 -0.000000 -0.000000 0.000000 -0.000000 0.000000 -0.000000 -0.000000 -0.000000 0.000000 0.000000 -0.000000 0.000000 0.000000 1.160817 2.003910 -4.102970 -0.734158 -0.214686 -77.262977 19.693580 -15.267080 0.293848 -0.798607 -3.507651 -2.704365 11.208053 -1.833108 23.967062 -5.037408 26.740553 -7.066182 0.000001 -0.000000 0.000000 2.368763 3.625478 -11.049963 -2.145426 2.447120 -21.250626 0.000001 0.000000 -0.000000 -1.983898 5.662836 -19.557449 0.264212 5.080570 -32.915713 0.000000 0.000000 -0.000003 -4.969077 10.111588 -17.205054 4.011998 4.052322 -39.692640 0.000001 0.000001 -0.000002 -6.463083 11.329664 -26.975419 10.716862 2.564569 -38.539595 0.000001 0.000001 -0.000002 0.000001 -0.000001 -0.000000 0.642613 7.488286 3.163863 -10.906660 6.111918 75.160296 12.927693 18.010338 -4.909400 0.144359 4.204482 -3.287182 15.604424 -1.060877 -16.838891 -6.819838 -23.995655 7.036373 -0.000000 0.000003 0.000004 2.252658 -2.301871 4.276836 -2.154203 -2.446649 14.477165 0.000002 0.000001 0.000002 -1.989680 -5.675483 9.333584 0.262186 -5.083667 22.690133 0.000004 -0.000001 -0.000001 -4.977128 -10.112763 8.395209 4.014494 -4.044188 30.884271 0.000001 -0.000001 -0.000000 -6.474055 -11.324687 17.730918 10.705969 -2.550086 29.286028 -0.000000 0.000000 -0.000003 -0.000001 -0.000002 0.000001 -0.000000 -0.000000 0.000000 -0.000000 -0.000000 -0.000000 -0.000000 -0.000000 0.000000 -0.000000 -0.000000 0.000000 -0.000000 -0.000000 0.000000 -0.000000 -0.000000 -0.000000 -0.000000 -0.000000 0.000000 -0.000000 -0.000000 0.000000 -0.000000 -0.000000 0.000000 -0.000000 -0.000000 -0.000000 0.000000 -0.000000 0.000000 0.000000 -0.000000 0.000000 0.000000 -0.000000 0.000000 
0.722719 73.127800 4.116599 -3.170064 -1.161271 -0.058741 0.000000 -0.000000 -0.000000 -25.216302 -3.642735 -1.448203 28.294071 -4.496239 -0.381869 15.719984 2.881572 7.362661 -0.000000 0.000000 -0.000000 -0.000002 0.000000 0.000001 -8.765432 -12.291626 1.437753 35.275533 7.644008 1.065033 -1.428690 0.476494 -8.879871 0.000000 -0.000000 -0.000000 0.000000 0.000000 0.000000 9.214770 0.761188 -0.926507 -2.680279 0.791055 0.482078 -2.685933 0.741731 0.358088 -6.079838 -1.410208 -1.447372 1.402775 0.883796 1.283253 -0.000000 -0.000000 -0.000000 -0.000000 -0.000000 -0.000000 -0.000000 -0.000000 -0.000000 -0.000000 -0.000000 0.000000 0.000000 -0.000000 -0.000000 -0.000000 -0.000000 0.000000 0.000000 -0.000000 -0.000000 -0.000000 -0.000000 -0.000000 -0.000000 -0.000000 -0.000000 1.230952 2.512767 -4.712645 -0.578908 -0.719547 -76.448429 20.029028 -15.512031 0.603878 -1.572346 -3.749215 -3.648031 11.896649 -0.748251 22.765314 -4.584004 27.403110 -7.082996 0.000002 -0.000000 0.000001 2.364412 3.614521 -12.003736 -2.144763 2.445501 -22.210406 0.000003 0.000001 -0.000002 -1.983839 5.658504 -20.495463 0.263102 5.077263 -33.857565 -0.000000 0.000001 -0.000003 -4.963730 10.114445 -18.142437 4.008067 4.050706 -40.629599 0.000002 -0.000001 -0.000005 -6.453349 11.338255 -27.914394 10.708380 2.565277 -39.487858 -0.000003 -0.000001 -0.000003 -0.000000 -0.000000 0.000001 0.778454 8.793805 2.328265 -12.498450 5.250364 75.729156 12.908350 20.891583 -5.059770 0.074505 4.166816 -2.601311 15.644458 -1.410737 -16.918932 -7.073226 -23.601189 7.039251 0.000000 0.000001 0.000007 2.252710 -2.306764 3.780210 -2.153227 -2.446264 13.980572 -0.000002 -0.000003 -0.000000 -1.986967 -5.675744 9.956604 0.262294 -5.083890 23.312820 0.000003 0.000000 0.000001 -4.977070 -10.113000 9.062409 4.012443 -4.044455 31.551290 0.000001 -0.000002 0.000001 -6.473945 -11.325109 18.522431 10.706263 -2.550424 30.077493 0.000002 0.000001 -0.000001 0.000000 0.000002 -0.000001 -0.000000 -0.000000 -0.000000 -0.000000 0.000000 0.000000 -0.000000 -0.000000 -0.000000 -0.000000 -0.000000 -0.000000 -0.000000 -0.000000 -0.000000 -0.000000 0.000000 0.000000 -0.000000 -0.000000 -0.000000 -0.000000 -0.000000 -0.000000 -0.000000 -0.000000 -0.000000 -0.000000 0.000000 0.000000 0.000000 -0.000000 -0.000000 0.000000 -0.000000 -0.000000 0.000000 -0.000000 -0.000000 
